REM DIRINDEX 1\6,1\2\7,1\2\8,1\2\9,1\3\10,1\3\11,1\4\12,1\4\13,1\4\14,1\5\15,1\5\16,1\5\17
REM DIRNAME folder01,folder02,folder03,folder04,folder05,folder06,folder07,folder08,folder09,folder10,folder11,folder12,folder13,folder14,folder15,folder16,folder17
TITLE ""
FILE "P2Q_j_1380-1393.mp3" MP3
  TRACK 01 AUDIO
    TITLE "12:cjc040_0885"
    INDEX 01 00:00:00
  TRACK 02 AUDIO
    TITLE "0:"
    INDEX 01 00:01:24
  TRACK 03 AUDIO
    TITLE "13:cjc040_0886"
    INDEX 01 00:02:00
  TRACK 04 AUDIO
    TITLE "0:"
    INDEX 01 00:03:59
  TRACK 05 AUDIO
    TITLE "14:cjc040_0887"
    INDEX 01 00:04:36
  TRACK 06 AUDIO
    TITLE "0:"
    INDEX 01 00:09:49
  TRACK 07 AUDIO
    TITLE "12:cjc040_0888"
    INDEX 01 00:10:29
  TRACK 08 AUDIO
    TITLE "0:"
    INDEX 01 00:11:62
  TRACK 09 AUDIO
    TITLE "13:cjc040_0889"
    INDEX 01 00:12:44
  TRACK 10 AUDIO
    TITLE "0:"
    INDEX 01 00:14:21
  TRACK 11 AUDIO
    TITLE "14:cjc040_0890"
    INDEX 01 00:15:09
  TRACK 12 AUDIO
    TITLE "0:"
    INDEX 01 00:18:44
  TRACK 13 AUDIO
    TITLE "12:cjc040_0891"
    INDEX 01 00:19:24
  TRACK 14 AUDIO
    TITLE "0:"
    INDEX 01 00:20:51
  TRACK 15 AUDIO
    TITLE "13:cjc040_0892"
    INDEX 01 00:21:35
  TRACK 16 AUDIO
    TITLE "0:"
    INDEX 01 00:23:44
  TRACK 17 AUDIO
    TITLE "14:cjc040_0893"
    INDEX 01 00:24:22
  TRACK 18 AUDIO
    TITLE "0:"
    INDEX 01 00:27:49
  TRACK 19 AUDIO
    TITLE "12:cjc040_0894"
    INDEX 01 00:28:35
  TRACK 20 AUDIO
    TITLE "0:"
    INDEX 01 00:29:62
  TRACK 21 AUDIO
    TITLE "13:cjc040_0895"
    INDEX 01 00:30:44
  TRACK 22 AUDIO
    TITLE "0:"
    INDEX 01 00:31:53
  TRACK 23 AUDIO
    TITLE "14:cjc040_0896"
    INDEX 01 00:32:33
  TRACK 24 AUDIO
    TITLE "0:"
    INDEX 01 00:36:44
  TRACK 25 AUDIO
    TITLE "12:cjc040_0897"
    INDEX 01 00:37:18
  TRACK 26 AUDIO
    TITLE "0:"
    INDEX 01 00:38:53
  TRACK 27 AUDIO
    TITLE "13:cjc040_0898"
    INDEX 01 00:39:37
  TRACK 28 AUDIO
    TITLE "0:"
    INDEX 01 00:40:64
  TRACK 29 AUDIO
    TITLE "14:cjc040_0899"
    INDEX 01 00:41:47
  TRACK 30 AUDIO
    TITLE "0:"
    INDEX 01 00:46:62
  TRACK 31 AUDIO
    TITLE "12:cjc040_0900"
    INDEX 01 00:47:42
  TRACK 32 AUDIO
    TITLE "0:"
    INDEX 01 00:49:20
  TRACK 33 AUDIO
    TITLE "13:cjc040_0901"
    INDEX 01 00:50:03
  TRACK 34 AUDIO
    TITLE "0:"
    INDEX 01 00:52:08
  TRACK 35 AUDIO
    TITLE "14:cjc040_0902"
    INDEX 01 00:52:65
  TRACK 36 AUDIO
    TITLE "0:"
    INDEX 01 00:56:41
  TRACK 37 AUDIO
    TITLE "12:cjc040_0903"
    INDEX 01 00:57:19
  TRACK 38 AUDIO
    TITLE "0:"
    INDEX 01 00:59:04
  TRACK 39 AUDIO
    TITLE "13:cjc040_0904"
    INDEX 01 00:59:61
  TRACK 40 AUDIO
    TITLE "0:"
    INDEX 01 01:02:32
  TRACK 41 AUDIO
    TITLE "14:cjc040_0905"
    INDEX 01 01:03:10
  TRACK 42 AUDIO
    TITLE "0:"
    INDEX 01 01:09:44
  TRACK 43 AUDIO
    TITLE "12:cjc040_0906"
    INDEX 01 01:10:20
  TRACK 44 AUDIO
    TITLE "0:"
    INDEX 01 01:11:51
  TRACK 45 AUDIO
    TITLE "13:cjc040_0907"
    INDEX 01 01:12:30
  TRACK 46 AUDIO
    TITLE "0:"
    INDEX 01 01:13:55
  TRACK 47 AUDIO
    TITLE "14:cjc040_0908"
    INDEX 01 01:14:31
  TRACK 48 AUDIO
    TITLE "0:"
    INDEX 01 01:18:02
  TRACK 49 AUDIO
    TITLE "12:cjc040_0909"
    INDEX 01 01:18:54
  TRACK 50 AUDIO
    TITLE "0:"
    INDEX 01 01:20:10
  TRACK 51 AUDIO
    TITLE "13:cjc040_0910"
    INDEX 01 01:20:67
  TRACK 52 AUDIO
    TITLE "0:"
    INDEX 01 01:22:17
  TRACK 53 AUDIO
    TITLE "14:cjc040_0911"
    INDEX 01 01:22:64
  TRACK 54 AUDIO
    TITLE "0:"
    INDEX 01 01:31:49
  TRACK 55 AUDIO
    TITLE "12:cjc040_0912"
    INDEX 01 01:32:29
  TRACK 56 AUDIO
    TITLE "0:"
    INDEX 01 01:33:56
  TRACK 57 AUDIO
    TITLE "13:cjc040_0913"
    INDEX 01 01:34:36
  TRACK 58 AUDIO
    TITLE "0:"
    INDEX 01 01:37:17
  TRACK 59 AUDIO
    TITLE "14:cjc040_0914"
    INDEX 01 01:37:69
  TRACK 60 AUDIO
    TITLE "0:"
    INDEX 01 01:40:56
  TRACK 61 AUDIO
    TITLE "12:cjc040_0915"
    INDEX 01 01:41:36
  TRACK 62 AUDIO
    TITLE "0:"
    INDEX 01 01:43:35
  TRACK 63 AUDIO
    TITLE "13:cjc040_0916"
    INDEX 01 01:44:09
  TRACK 64 AUDIO
    TITLE "0:"
    INDEX 01 01:45:51
  TRACK 65 AUDIO
    TITLE "14:cjc040_0917"
    INDEX 01 01:46:25
  TRACK 66 AUDIO
    TITLE "0:"
    INDEX 01 01:50:29
  TRACK 67 AUDIO
    TITLE "12:cjc040_0918"
    INDEX 01 01:51:13
  TRACK 68 AUDIO
    TITLE "0:"
    INDEX 01 01:52:71
  TRACK 69 AUDIO
    TITLE "13:cjc040_0919"
    INDEX 01 01:53:47
  TRACK 70 AUDIO
    TITLE "0:"
    INDEX 01 01:55:01
  TRACK 71 AUDIO
    TITLE "14:cjc040_0920"
    INDEX 01 01:55:52
  TRACK 72 AUDIO
    TITLE "0:"
    INDEX 01 02:04:72
  TRACK 73 AUDIO
    TITLE "12:cjc040_0921"
    INDEX 01 02:05:50
  TRACK 74 AUDIO
    TITLE "0:"
    INDEX 01 02:07:08
  TRACK 75 AUDIO
    TITLE "13:cjc040_0922"
    INDEX 01 02:07:69
  TRACK 76 AUDIO
    TITLE "0:"
    INDEX 01 02:09:68
  TRACK 77 AUDIO
    TITLE "14:cjc040_0923"
    INDEX 01 02:10:49
  TRACK 78 AUDIO
    TITLE "0:"
    INDEX 01 02:15:17
  TRACK 79 AUDIO
    TITLE "12:cjc040_0924"
    INDEX 01 02:15:68
  TRACK 80 AUDIO
    TITLE "0:"
    INDEX 01 02:17:42
  TRACK 81 AUDIO
    TITLE "13:cjc040_0925"
    INDEX 01 02:18:19
  TRACK 82 AUDIO
    TITLE "0:"
    INDEX 01 02:19:74
  TRACK 83 AUDIO
    TITLE "14:cjc040_0926"
    INDEX 01 02:20:56
  TRACK 84 AUDIO
    TITLE "0:"
    INDEX 01 02:24:47
